# Blender v2.80 (sub 75) OBJ File: 'staff.blend'
# www.blender.org
mtllib staff_weapon.mtl
o Cube.004_Cube.007
v 0.515000 1.600000 0.475000
v 0.515000 1.400000 0.475000
v 0.515000 1.600000 0.450000
v 0.515000 1.400000 0.450000
v 0.540000 1.600000 0.490000
v 0.540000 1.400000 0.490000
v 0.540000 1.600000 0.450000
v 0.540000 1.400000 0.450000
v 0.525001 0.000000 0.525000
v 0.525000 1.500000 0.525000
v 0.525001 0.000000 0.475000
v 0.525000 1.500000 0.475000
v 0.475001 0.000000 0.525000
v 0.475000 1.500000 0.525000
v 0.475001 0.000000 0.475000
v 0.475000 1.500000 0.475000
v 0.485000 1.400000 0.475000
v 0.485000 1.600000 0.475000
v 0.485000 1.400000 0.450000
v 0.485000 1.600000 0.450000
v 0.460000 1.400000 0.490000
v 0.460000 1.600000 0.490000
v 0.460000 1.400000 0.450000
v 0.460000 1.600000 0.450000
v 0.515000 1.400000 0.525000
v 0.515000 1.600000 0.525000
v 0.515000 1.400000 0.550000
v 0.515000 1.600000 0.550000
v 0.540000 1.400000 0.510000
v 0.540000 1.600000 0.510000
v 0.540000 1.400000 0.550000
v 0.540000 1.600000 0.550000
v 0.485000 1.600000 0.525000
v 0.485000 1.400000 0.525000
v 0.485000 1.600000 0.550000
v 0.485000 1.400000 0.550000
v 0.460000 1.600000 0.510000
v 0.460000 1.400000 0.510000
v 0.460000 1.600000 0.550000
v 0.460000 1.400000 0.550000
vt 0.375000 0.859375
vt 0.449219 0.859375
vt 0.449219 0.722656
vt 0.375000 0.722656
vt 0.527344 0.859375
vt 0.601562 0.859375
vt 0.601562 0.722656
vt 0.527344 0.722656
vt 0.843750 0.730469
vt 0.726562 0.730469
vt 0.726562 0.863281
vt 0.843750 0.863281
vt 0.218750 0.859375
vt 0.292969 0.859375
vt 0.292969 0.722656
vt 0.218750 0.722656
vt 0.925781 0.781250
vt 0.925781 0.847656
vt 1.000000 0.886719
vt 1.000000 0.781250
vt 0.707031 0.699219
vt 0.707031 0.593750
vt 0.632812 0.632812
vt 0.632812 0.699219
vt 1.000000 0.589844
vt 1.000000 0.441406
vt 0.000000 0.441406
vt 0.000000 0.589844
vt 1.000000 0.292969
vt 0.000000 0.292969
vt 0.000000 0.144531
vt 0.000000 0.289062
vt 1.000000 0.289062
vt 1.000000 0.144531
vt 0.000000 0.000000
vt 0.000000 0.144531
vt 1.000000 0.144531
vt 1.000000 0.000000
vt 0.867188 0.593750
vt 0.867188 0.738281
vt 1.000000 0.738281
vt 1.000000 0.593750
vt 0.000000 0.738281
vt 0.132812 0.738281
vt 0.132812 0.593750
vt 0.000000 0.593750
vt 0.371094 0.726562
vt 0.296875 0.726562
vt 0.296875 0.859375
vt 0.371094 0.859375
vt 0.453125 0.859375
vt 0.523438 0.859375
vt 0.523438 0.726562
vt 0.453125 0.726562
vt 0.605469 0.863281
vt 0.722656 0.863281
vt 0.722656 0.730469
vt 0.605469 0.730469
vt 0.140625 0.859375
vt 0.214844 0.859375
vt 0.214844 0.722656
vt 0.140625 0.722656
vt 0.710938 0.593750
vt 0.710938 0.660156
vt 0.785156 0.703125
vt 0.785156 0.593750
vt 0.847656 0.781250
vt 0.847656 0.886719
vt 0.921875 0.847656
vt 0.921875 0.781250
vt 0.449219 0.863281
vt 0.375000 0.863281
vt 0.375000 1.000000
vt 0.449219 1.000000
vt 0.601562 0.863281
vt 0.531250 0.863281
vt 0.531250 1.000000
vt 0.601562 1.000000
vt 0.843750 0.867188
vt 0.726562 0.867188
vt 0.726562 1.000000
vt 0.843750 1.000000
vt 0.292969 0.863281
vt 0.218750 0.863281
vt 0.218750 1.000000
vt 0.292969 1.000000
vt 0.859375 0.699219
vt 0.859375 0.632812
vt 0.789062 0.593750
vt 0.789062 0.699219
vt 1.000000 1.000000
vt 1.000000 0.890625
vt 0.929688 0.933594
vt 0.929688 1.000000
vt 0.371094 0.867188
vt 0.296875 0.867188
vt 0.296875 1.000000
vt 0.371094 1.000000
vt 0.453125 1.000000
vt 0.527344 1.000000
vt 0.527344 0.867188
vt 0.453125 0.867188
vt 0.722656 0.867188
vt 0.605469 0.867188
vt 0.605469 1.000000
vt 0.722656 1.000000
vt 0.140625 1.000000
vt 0.214844 1.000000
vt 0.214844 0.867188
vt 0.140625 0.867188
vt 0.921875 1.000000
vt 0.921875 0.933594
vt 0.847656 0.894531
vt 0.847656 1.000000
vt 0.628906 0.699219
vt 0.628906 0.593750
vt 0.558594 0.632812
vt 0.558594 0.699219
vn -1.0000 -0.0000 0.0000
vn 0.0000 0.0000 -1.0000
vn 1.0000 0.0000 0.0000
vn -0.5145 -0.0000 0.8575
vn 0.0000 1.0000 0.0000
vn 0.0000 -1.0000 0.0000
vn -0.0000 -0.0000 1.0000
vn 0.5145 0.0000 0.8575
vn -0.5145 -0.0000 -0.8575
vn 0.5145 0.0000 -0.8575
usemtl Material.001
s off
f 1/1/1 3/2/1 4/3/1 2/4/1
f 3/5/2 7/6/2 8/7/2 4/8/2
f 7/9/3 5/10/3 6/11/3 8/12/3
f 5/13/4 1/14/4 2/15/4 6/16/4
f 3/17/5 1/18/5 5/19/5 7/20/5
f 8/21/6 6/22/6 2/23/6 4/24/6
f 9/25/3 11/26/3 12/27/3 10/28/3
f 11/26/2 15/29/2 16/30/2 12/27/2
f 15/31/1 13/32/1 14/33/1 16/34/1
f 13/35/7 9/36/7 10/37/7 14/38/7
f 11/39/6 9/40/6 13/41/6 15/42/6
f 16/43/5 14/44/5 10/45/5 12/46/5
f 17/47/3 19/48/3 20/49/3 18/50/3
f 19/51/2 23/52/2 24/53/2 20/54/2
f 23/55/1 21/56/1 22/57/1 24/58/1
f 21/59/8 17/60/8 18/61/8 22/62/8
f 19/63/6 17/64/6 21/65/6 23/66/6
f 24/67/5 22/68/5 18/69/5 20/70/5
f 25/71/1 27/72/1 28/73/1 26/74/1
f 27/75/7 31/76/7 32/77/7 28/78/7
f 31/79/3 29/80/3 30/81/3 32/82/3
f 29/83/9 25/84/9 26/85/9 30/86/9
f 27/87/6 25/88/6 29/89/6 31/90/6
f 32/91/5 30/92/5 26/93/5 28/94/5
f 33/95/3 35/96/3 36/97/3 34/98/3
f 35/99/7 39/100/7 40/101/7 36/102/7
f 39/103/1 37/104/1 38/105/1 40/106/1
f 37/107/10 33/108/10 34/109/10 38/110/10
f 35/111/5 33/112/5 37/113/5 39/114/5
f 40/115/6 38/116/6 34/117/6 36/118/6
